HIERARCHY
ROOT Hips
{
	OFFSET 0.000000 0.000000 0.000000 
	CHANNELS 6 Xposition Yposition Zposition Zrotation Yrotation Xrotation
	JOINT LeftUpLeg
	{
		OFFSET 1.363060 -1.794630 0.839290 
		CHANNELS 3 Zrotation Yrotation Xrotation
		JOINT LeftLeg
		{
			OFFSET 2.448110 -6.726130 0.000000 
			CHANNELS 3 Zrotation Yrotation Xrotation
			JOINT LeftFoot
			{
				OFFSET 2.562200 -7.039590 0.000000 
				CHANNELS 3 Zrotation Yrotation Xrotation
				JOINT LeftToeBase
				{
					OFFSET 0.157640 -0.433110 2.322550 
					CHANNELS 3 Zrotation Yrotation Xrotation
					End Site
					{
						OFFSET 0.000000 0.000000 0.000000 
					}
				}
			}
		}
	}
	JOINT RightUpLeg
	{
		OFFSET -1.305520 -1.794630 0.839290 
		CHANNELS 3 Zrotation Yrotation Xrotation
		JOINT RightLeg
		{
			OFFSET -2.542530 -6.985550 0.000000 
			CHANNELS 3 Zrotation Yrotation Xrotation
			JOINT RightFoot
			{
				OFFSET -2.568260 -7.056230 0.000000 
				CHANNELS 3 Zrotation Yrotation Xrotation
				JOINT RightToeBase
				{
					OFFSET -0.164730 -0.452590 2.363150 
					CHANNELS 3 Zrotation Yrotation Xrotation
					End Site
					{
						OFFSET 0.000000 0.000000 0.000000 
					}
				}
			}
		}
	}
	JOINT Spine
	{
		OFFSET 0.028270 2.035590 -0.193380 
		CHANNELS 3 Zrotation Yrotation Xrotation
		JOINT Spine1
		{
			OFFSET 0.056720 2.048850 -0.042750 
			CHANNELS 3 Zrotation Yrotation Xrotation
			JOINT Neck1
			{
				OFFSET -0.054170 1.746240 0.172020 
				CHANNELS 3 Zrotation Yrotation Xrotation
				JOINT Head
				{
					OFFSET 0.104070 1.761360 -0.123970 
					CHANNELS 3 Zrotation Yrotation Xrotation
					End Site
					{
						OFFSET 0.000000 0.000000 0.000000 
					}
				}
			}
			JOINT LeftArm
			{
				OFFSET 3.362410 1.200890 -0.311210 
				CHANNELS 3 Zrotation Yrotation Xrotation
				JOINT LeftForeArm
				{
					OFFSET 4.983000 -0.000000 -0.000000 
					CHANNELS 3 Zrotation Yrotation Xrotation
					JOINT LeftHand
					{
						OFFSET 3.483560 -0.000000 -0.000000 
						CHANNELS 3 Zrotation Yrotation Xrotation
						JOINT LeftHandIndex1
						{
							OFFSET 0.715260 -0.000000 -0.000000 
							CHANNELS 3 Zrotation Yrotation Xrotation
							End Site
							{
								OFFSET 0.000000 0.000000 0.000000 
							}
						}
					}
				}
			}
			JOINT RightArm
			{
				OFFSET -3.136600 1.374050 -0.404650 
				CHANNELS 3 Zrotation Yrotation Xrotation
				JOINT RightForeArm
				{
					OFFSET -5.241900 -0.000000 -0.000000 
					CHANNELS 3 Zrotation Yrotation Xrotation
					JOINT RightHand
					{
						OFFSET -3.444170 -0.000000 -0.000000 
						CHANNELS 3 Zrotation Yrotation Xrotation
						JOINT RightHandIndex1
						{
							OFFSET -0.622530 -0.000000 -0.000000 
							CHANNELS 3 Zrotation Yrotation Xrotation
							End Site
							{
								OFFSET 0.000000 0.000000 0.000000 
							}
						}
					}
				}
			}
		}
	}
}
MOTION
Frames: 9
Frame Time: 0.041667
10.377301 17.855046 19.976059 -179.649264 -3.273709 -145.107345 -17.576998 -24.470905 -34.790822 -0.836447 10.210735 21.032666 1.379514 1.794306 -22.925579 6.026500 -14.454000 -45.088100 22.267555 27.807749 -37.018292 0.924075 -10.870258 21.467523 -1.135541 -2.762958 -25.137504 -3.578300 11.577100 -34.251800 1.277255 -0.899514 -5.781769 1.050274 -0.975192 10.595186 14.336443 -11.057949 -6.705864 4.291900 -6.261100 -5.195000 -93.639287 2.256543 52.497680 18.440870 -24.560029 -5.754789 -1.701403 0.494646 -0.381248 -7.125000 0.000000 0.000000 95.272439 -8.061036 19.493562 -17.059498 29.015650 -5.679681 0.646304 3.549502 -3.071739 7.125000 0.000000 0.000000 
10.389784 17.831942 20.012412 -179.860513 -3.370984 -144.703016 -17.145070 -25.059946 -36.401150 -0.650637 10.990602 22.821008 1.425766 1.724409 -23.536493 6.119400 -14.543000 -45.458900 21.574934 27.803559 -38.517298 0.804423 -11.486068 22.865007 -1.195758 -2.728420 -25.768295 -3.709500 11.763500 -34.900300 1.255254 -0.959771 -5.813145 1.103676 -0.988439 10.205637 13.900240 -10.321116 -6.123975 4.239000 -5.788600 -5.086900 -93.205214 2.687189 52.844683 18.842106 -25.083263 -5.996670 -1.698831 0.467703 -0.616819 -7.125000 0.000000 0.000000 95.121265 -8.640547 19.725170 -17.602561 29.688740 -5.984231 0.625127 3.557768 -3.350297 7.125000 0.000000 0.000000 
10.400953 17.807304 20.048657 -179.924600 -3.647656 -144.404909 -16.562603 -25.524940 -37.945405 -0.431035 11.735306 24.579380 1.422540 1.268071 -23.942793 6.032100 -14.459400 -45.110600 21.183005 27.836686 -39.725384 0.693857 -12.000019 24.046134 -1.236133 -2.790480 -26.187512 -3.677900 11.719000 -34.745000 1.265195 -1.044302 -5.843378 1.048536 -0.997771 9.817381 14.268198 -10.975525 -6.789347 4.328900 -6.202500 -5.165300 -92.836432 2.991577 53.095052 19.160452 -25.495810 -6.192993 -1.678068 0.445375 -0.940313 -7.125000 0.000000 0.000000 94.954877 -9.254141 20.031429 -18.196486 30.403535 -6.317332 0.593737 3.544034 -3.596018 7.125000 0.000000 0.000000 
10.410589 17.771279 20.089391 -179.898360 -3.910434 -143.998519 -15.802565 -25.947097 -39.729993 -0.174376 12.534900 26.477881 1.431026 0.764333 -24.496823 5.813200 -14.244800 -44.227300 20.809680 27.889549 -41.149169 0.560476 -12.567583 25.342715 -1.267712 -2.798733 -26.498873 -3.642700 11.669100 -34.571200 1.270166 -1.085686 -5.832519 0.941930 -0.984429 9.643868 14.245076 -10.982366 -7.419776 4.372700 -6.251000 -5.425800 -92.446925 3.149244 53.259110 19.476502 -25.905722 -6.388201 -1.664408 0.444621 -1.270303 -7.125000 0.000000 0.000000 94.879991 -9.596056 20.151910 -18.731865 31.031184 -6.621853 0.583518 3.510185 -3.484026 7.125000 0.000000 0.000000 
10.420225 17.719486 20.137242 -179.785748 -3.910290 -143.347023 -14.821584 -26.298892 -41.906193 0.106002 13.385046 28.466999 1.483601 0.615196 -25.138741 5.732800 -14.164300 -43.899700 20.220518 28.074732 -43.204639 0.364269 -13.320489 27.055590 -1.326779 -2.519037 -26.980568 -3.687600 11.732600 -34.792600 1.269736 -0.993214 -5.851365 0.983399 -0.922373 9.497173 14.774361 -10.992366 -7.041793 4.643700 -6.219900 -5.164700 -92.113595 3.300421 53.508620 19.771441 -26.281491 -6.570749 -1.666676 0.453448 -1.413902 -7.125000 0.000000 0.000000 94.704579 -10.049182 20.322322 -19.332623 31.730083 -6.973934 0.587161 3.480683 -3.769530 7.125000 0.000000 0.000000 
10.430190 17.670320 20.165165 -179.967692 -4.266126 -143.439123 -14.607854 -26.667590 -42.991861 0.399676 14.041226 30.188803 1.473699 0.113220 -25.381569 5.735200 -14.166700 -43.909600 20.054847 27.755279 -43.978935 0.160034 -13.869366 28.509617 -1.413960 -2.471973 -27.632352 -3.715100 11.771400 -34.927900 1.267306 -1.066472 -5.831487 1.007818 -0.915858 9.078091 15.242023 -10.958722 -7.005205 4.930900 -6.187700 -5.106700 -91.719849 3.687398 53.796214 20.156033 -26.757388 -6.810280 -1.664673 0.449641 -1.436659 -7.125000 0.000000 0.000000 94.520564 -10.820843 20.696622 -20.130677 32.632538 -7.449296 0.578661 3.475171 -4.407300 7.125000 0.000000 0.000000 
10.439059 17.603744 20.212797 -179.871852 -4.396556 -142.956634 -13.786983 -26.722871 -45.021491 0.736286 14.811062 32.109072 1.466444 -0.477119 -25.765522 5.537100 -13.964200 -43.094200 19.641446 27.789274 -45.844248 -0.094287 -14.618460 30.314073 -1.483264 -2.368069 -28.137762 -3.827000 11.926500 -35.472500 1.268099 -1.037350 -5.846447 0.957565 -0.869966 8.788426 15.701160 -10.922701 -6.948838 5.186200 -6.162500 -5.003900 -91.352102 3.987737 53.943925 20.651450 -27.357102 -7.121262 -1.659352 0.426668 -1.558940 -7.125000 0.000000 0.000000 94.339591 -11.384502 21.019152 -20.934156 33.510567 -7.931764 0.539599 3.460524 -4.657399 7.125000 0.000000 0.000000 
10.453951 17.534431 20.263277 -179.924336 -4.732783 -142.536593 -13.090373 -26.814544 -47.073976 1.145368 15.629689 34.244366 1.455585 -1.261007 -26.232496 5.442100 -13.865000 -42.699500 19.212088 27.615629 -47.591614 -0.370807 -15.326634 32.075727 -1.563564 -2.276300 -28.689355 -3.836500 11.939600 -35.518500 1.286494 -1.119295 -5.865491 0.979923 -0.878656 8.446688 16.182415 -10.874471 -6.899998 5.457400 -6.130800 -4.898000 -91.044803 4.173825 54.025575 21.095544 -27.878146 -7.402283 -1.644633 0.401864 -1.940366 -7.125000 0.000000 0.000000 94.158677 -11.845151 21.341689 -21.637709 34.250146 -8.360114 0.536687 3.428406 -4.867169 7.125000 0.000000 0.000000 
10.465449 17.453182 20.302149 -179.899786 -4.845924 -142.312262 -12.799348 -26.434225 -48.785984 1.592298 16.388994 36.375117 1.434563 -1.981737 -26.495535 5.604800 -14.034200 -43.374400 18.942404 27.485862 -49.085442 -0.708998 -16.038976 33.961197 -1.685270 -1.664801 -29.343057 -3.656400 11.688600 -34.639100 1.293118 -1.064250 -5.816735 1.039196 -0.821768 8.330905 16.762290 -10.803043 -6.896980 5.809600 -6.085800 -4.823400 -90.807205 4.206320 54.026732 21.456405 -28.304686 -7.634814 -1.629077 0.382615 -2.360595 -7.125000 0.000000 0.000000 93.850238 -12.270826 21.868590 -22.475532 35.119176 -8.887884 0.550691 3.435263 -5.503911 7.125000 0.000000 0.000000 
